# xmcd database file
#
# Track frame offsets:
# 150
# 12091
# 23483
# 34820
# 47234
# 57487
# 67250
# 79038
# 91305
# 102263
# 114087
# 124185
# 136479
# 146949
# 158596
# 171093
# 182954
# 198054
# 209207
# 224217
# 235853
# 248660
# 259588
# 271618
#
# Disc length: 3811 seconds
#
# Revision: 0
# Processed by: cddbd v1.5.2PL0 Copyright (c) Steve Scherf et al.
# Submitted via: CD-Runner 2006.50
#
DISCID=5c0ee118
DTITLE=Bobby Bare - The Singles 1959-1969 - CD 2
DYEAR=1900
DGENRE=Country
TTITLE0=The Streets Of Baltimore
TTITLE1=She Took My Sunshine Away
TTITLE2=Homesick
TTITLE3=Guess I'll Move On Down The Line
TTITLE4=Vincennes
TTITLE5=Come Kiss Me Love
TTITLE6=Sandy's Crying Again
TTITLE7=The Pineywood Hills
TTITLE8=They Covered Up The Old Swimming Hole
TTITLE9=Charleston Railroad Tavern
TTITLE10=Find Out What's Happening
TTITLE11=When Am I Ever Gonna Settle Down
TTITLE12=A Little Bit Later On Down The Line
TTITLE13=Don't Do Like I Done Son
TTITLE14=The Town That Broke My Heart
TTITLE15=My Baby
TTITLE16=Margie's At Lincoln Park Inn
TTITLE17=Rainy Day In Richmond
TTITLE18=Which One Will It Be
TTITLE19=My Frame Of Mind
TTITLE20=God Bless America Again
TTITLE21=Baby What Else Can I Do
TTITLE22=Rosalie (German)
TTITLE23=Alle Glauben Dass Ich Glucklich Bin (German)
EXTD=
EXTT0=
EXTT1=
EXTT2=
EXTT3=
EXTT4=
EXTT5=
EXTT6=
EXTT7=
EXTT8=
EXTT9=
EXTT10=
EXTT11=
EXTT12=
EXTT13=
EXTT14=
EXTT15=
EXTT16=
EXTT17=
EXTT18=
EXTT19=
EXTT20=
EXTT21=
EXTT22=
EXTT23=
PLAYORDER=
